# xmcd
#
# Track frame offsets:
#	180
#	12685
#	29700
#	43115
#	59832
#	76090
#	88319
#	105724
#	123417
#	137555
#	152902
#	166923
#	185061
#	200963
#	213175
#
# Disc length: 3047 seconds
#
# Revision: 1
# Processed by: cddbd v1.5.1PL0 Copyright (c) Steve Scherf et al.
# Submitted via: audiograbber 1.83.01
#
DISCID=e20be50f
DTITLE=Sound Choice: Country Hits - SC-8130
DYEAR=1900
DGENRE=Country Karaoke
TTITLE0=Trisha Yearwood - That's What I Like About You
TTITLE1=Radney Foster - Easier Said Than Done
TTITLE2=Suzy Boguss - Outbound Plane
TTITLE3=Rodney Crowell - Lovin' All Night
TTITLE4=Alabama - Reckless
TTITLE5=Larry Stewart - Allright Already
TTITLE6=Mark Chesnutt - I'll Think Of Something
TTITLE7=Mark Collie - Even The Man On The Moon Is Crying
TTITLE8=Brooks and Dunn - We'll Burn That Bridge
TTITLE9=Dwight Yoakam - Ain't That Lonely Yet
TTITLE10=Diamond Rio - In A Week Or Two
TTITLE11=Tanya Tucker and Delbert McClinton - Tell Me About It
TTITLE12=Confederate Railroad - Jesus and Momma
TTITLE13=Sawyer Brown - Trouble On The Line
TTITLE14=Hal Ketchum - Hearts Are Gonna Roll
EXTD=
EXTT0=
EXTT1=
EXTT2=
EXTT3=
EXTT4=
EXTT5=
EXTT6=
EXTT7=
EXTT8=
EXTT9=
EXTT10=
EXTT11=
EXTT12=
EXTT13=
EXTT14=
PLAYORDER=
